<?xml version="1.0" encoding="utf-8"?>
<!-- Generator: Adobe Illustrator 25.2.1, SVG Export Plug-In . SVG Version: 6.00 Build 0)  -->
<svg version="1.1" id="Capa_1" xmlns="http://www.w3.org/2000/svg" xmlns:xlink="http://www.w3.org/1999/xlink" x="0px" y="0px"
	 viewBox="0 0 595.28 583.67" style="enable-background:new 0 0 595.28 583.67;" xml:space="preserve">
<style type="text/css">
	.st0{fill:none;stroke:#000000;stroke-miterlimit:10;}
	.st1{fill:#0A0A0A;stroke:#000000;stroke-miterlimit:10;}
	.st2{fill:#A46033;stroke:#000000;stroke-miterlimit:10;}
	.st3{stroke:#000000;stroke-miterlimit:10;}
	.st4{fill:#C6C6C5;stroke:#000000;stroke-miterlimit:10;}
</style>
<line class="st0" x1="148.82" y1="492.97" x2="148.82" y2="490.93"/>
<path class="st1" d="M150.36,492.09l-1.53,0.89h-0.02v51.64c-2.26-1.27-4.51-2.58-6.73-3.93c-11.98-7.22-23.4-15.24-34.18-23.99
	c-2.94-2.4-5.83-4.84-8.68-7.35c-6.68-5.85-13.1-12.01-19.22-18.44c-3.16-3.32-6.24-6.72-9.25-10.19
	c-7.58-8.75-14.64-17.94-21.14-27.52c-2.69-3.95-5.28-7.97-7.76-12.07c-0.17-0.28-0.33-0.55-0.52-0.83
	c-2.81-4.67-5.5-9.43-8.06-14.27c-5.22-9.84-9.88-20.02-13.92-30.49c-0.55-1.38-1.07-2.79-1.58-4.19
	c-4.6-12.38-8.35-25.15-11.2-38.26c-0.5-2.25-0.96-4.52-1.38-6.79c-0.31-1.57-0.61-3.14-0.86-4.71C1.47,325.44,0,308.81,0,291.83
	c0-16.98,1.47-33.61,4.32-49.77c0.26-1.57,0.55-3.14,0.86-4.71c0.42-2.27,0.88-4.54,1.38-6.79c2.85-13.1,6.6-25.89,11.2-38.28
	c0.52-1.4,1.05-2.79,1.58-4.17c4.05-10.46,8.7-20.65,13.92-30.49c2.56-4.84,5.24-9.6,8.06-14.27c0.18-0.28,0.35-0.55,0.52-0.83
	c2.48-4.1,5.08-8.12,7.76-12.07c6.49-9.58,13.56-18.77,21.14-27.52c3.02-3.47,6.09-6.87,9.25-10.19
	c6.13-6.42,12.55-12.59,19.22-18.44c2.85-2.51,5.74-4.95,8.68-7.35c10.78-8.75,22.2-16.78,34.18-23.99
	c2.23-1.35,4.47-2.66,6.73-3.93v53.7c0,0,0,0-0.02,0c-13.39,10.1-25.73,21.52-36.83,34.07c-4.45,5.04-8.72,10.26-12.75,15.67
	c-0.02,0.02-0.02,0.02-0.02,0.04c-5.96,7.94-11.42,16.22-16.41,24.86c-4.62,8.03-8.81,16.33-12.55,24.9
	c-0.28,0.61-0.53,1.24-0.81,1.86c-2.61,6.16-5,12.44-7.14,18.84c-3.13,9.45-5.72,19.16-7.73,29.07c-1.34,6.57-2.41,13.25-3.2,20.01
	c-0.09,0.63-0.17,1.27-0.22,1.92c-1.03,9.14-1.55,18.44-1.55,27.85c0,9.41,0.52,18.71,1.55,27.85c0.06,0.65,0.13,1.29,0.22,1.92
	c0.79,6.75,1.86,13.44,3.2,20.01c2.01,9.91,4.6,19.62,7.73,29.07c2.13,6.4,4.53,12.68,7.14,18.84c0.28,0.63,0.53,1.24,0.79,1.85
	c3.73,8.56,7.93,16.89,12.56,24.91c4.98,8.64,10.45,16.92,16.41,24.86c0,0.02,0,0.02,0.02,0.04c4.03,5.41,8.3,10.63,12.75,15.67
	c11.09,12.55,23.44,23.97,36.83,34.07c0.02,0,0.02,0,0.02,0v0.02C149.33,491.32,149.84,491.7,150.36,492.09z"/>
<path class="st2" d="M496.07,74.34v160.03l-13.28,7.7h-36.33V92.76h0.04c-0.02-0.02-0.02-0.02-0.04-0.02
	c-0.51-0.41-1.03-0.79-1.55-1.16c-6.18-4.61-12.62-8.91-19.22-12.92c-0.02,0-0.02-0.02-0.04-0.02c-2.67-1.61-5.33-3.17-8.08-4.67
	c-0.06-0.04-0.13-0.07-0.18-0.11c-6.66-3.69-13.52-7.09-20.55-10.19c-0.55-0.24-1.12-0.48-1.69-0.72
	c-15.23-6.55-31.27-11.61-47.9-14.99c-6.55-1.33-13.19-2.42-19.92-3.21c-9.73-1.18-19.65-1.77-29.69-1.77
	c-10.04,0-19.96,0.59-29.69,1.77c-6.73,0.79-13.37,1.88-19.92,3.21c-16.63,3.38-32.67,8.43-47.9,14.99
	c-0.57,0.24-1.14,0.5-1.71,0.74v178.37h248.04v21.04l-49.61,28.73l49.61,28.73v21.04h36.33l13.28,7.7v160.04
	c-2.85,2.49-5.74,4.95-8.68,7.35c-10.78,8.75-22.2,16.78-34.2,23.99c-2.23,1.35-4.47,2.66-6.73,3.93v-53.69c0.02,0,0.02,0,0.04-0.02
	h-0.04V378.04l-49.61-28.73l-13.28-7.7l-36.31-21.04v-28.73H198.43v275.22c-15.45-5.35-30.3-11.92-44.46-19.58
	c-1.73-0.94-3.44-1.88-5.15-2.86v-51.64h0.02l1.53-0.89c-0.52-0.39-1.03-0.78-1.55-1.16V39.05c1.71-0.98,3.42-1.92,5.15-2.86
	c14.16-7.66,29.01-14.23,44.46-19.58c4.45-1.55,8.94-2.99,13.48-4.32c11.75-3.47,23.82-6.24,36.13-8.27
	c13.7-2.25,27.74-3.58,42.01-3.93c2.52-0.06,5.06-0.09,7.6-0.09c2.54,0,5.06,0.04,7.58,0.09c14.27,0.35,28.31,1.68,42.03,3.93
	c12.31,2.03,24.37,4.8,36.13,8.27c4.54,1.33,9.03,2.77,13.47,4.32c15.45,5.35,30.31,11.92,44.46,19.6c1.73,0.92,3.44,1.86,5.15,2.84
	c2.26,1.27,4.51,2.58,6.73,3.93c11.99,7.22,23.42,15.24,34.2,23.99C490.33,69.37,493.22,71.83,496.07,74.34z"/>
<path class="st0" d="M425.66,78.64l-8.08-4.67C420.32,75.46,422.99,77.03,425.66,78.64z"/>
<path class="st0" d="M446.5,92.76h-0.04v-0.02C446.48,92.74,446.48,92.74,446.5,92.76z"/>
<path class="st3" d="M446.46,490.93v53.69c-1.71,0.98-3.42,1.92-5.15,2.84c-14.15,7.68-29.01,14.25-44.46,19.6
	c-4.43,1.55-8.92,2.99-13.47,4.32c-11.75,3.47-23.82,6.24-36.13,8.27c-13.72,2.25-27.76,3.58-42.03,3.93
	c-2.52,0.06-5.04,0.09-7.58,0.09c-2.54,0-5.08-0.04-7.6-0.09c-14.27-0.35-28.31-1.68-42.01-3.93c-12.31-2.03-24.37-4.8-36.13-8.27
	c-4.54-1.33-9.03-2.77-13.48-4.32v-47.08c0.57,0.24,1.14,0.5,1.71,0.74c15.23,6.55,31.27,11.61,47.9,14.99
	c6.55,1.33,13.19,2.42,19.92,3.21c9.73,1.18,19.65,1.77,29.69,1.77c10.04,0,19.96-0.59,29.69-1.77c6.73-0.79,13.37-1.88,19.92-3.21
	c16.63-3.38,32.67-8.43,47.9-14.99c0.57-0.24,1.14-0.48,1.69-0.72c7.03-3.1,13.89-6.5,20.55-10.19c0.06-0.04,0.13-0.07,0.18-0.11
	c0.15-0.07,0.28-0.15,0.42-0.24c0.04-0.02,0.07-0.04,0.11-0.07c0.28-0.15,0.55-0.3,0.83-0.46c2.28-1.24,4.51-2.57,6.71-3.89
	c0.02,0,0.02-0.02,0.04-0.02c0.04-0.02,0.06-0.04,0.09-0.06c0.02-0.02,0.04-0.02,0.06-0.04c6.55-3.97,12.95-8.25,19.08-12.83
	C445.43,491.72,445.95,491.34,446.46,490.93z"/>
<path class="st0" d="M446.5,490.91c-0.02,0.02-0.02,0.02-0.04,0.02v-0.02H446.5z"/>
<path class="st3" d="M595.28,291.83c0,16.98-1.47,33.61-4.32,49.77c-0.26,1.57-0.55,3.14-0.86,4.69c-0.42,2.29-0.88,4.56-1.38,6.83
	c-2.87,13.08-6.6,25.86-11.2,38.24c-0.52,1.4-1.03,2.81-1.58,4.19c-4.05,10.48-8.72,20.65-13.92,30.51
	c-2.56,4.84-5.24,9.58-8.06,14.25c-0.18,0.28-0.35,0.55-0.52,0.83c-2.48,4.08-5.06,8.1-7.74,12.05
	c-6.51,9.6-13.58,18.79-21.15,27.54c-3.02,3.47-6.09,6.87-9.25,10.19c-6.13,6.42-12.53,12.59-19.2,18.44v-68.17
	c0.02-0.02,0.02-0.02,0.02-0.04c5.94-7.92,11.42-16.22,16.41-24.84c4.62-8.03,8.81-16.35,12.56-24.93c0.26-0.61,0.52-1.22,0.79-1.85
	c2.61-6.16,5-12.44,7.12-18.84c3.15-9.45,5.74-19.16,7.74-29.07c1.34-6.57,2.41-13.25,3.2-20.02c0.09-0.63,0.17-1.26,0.22-1.9
	c1.03-9.14,1.55-18.44,1.55-27.85c0-9.41-0.52-18.71-1.55-27.85c-0.06-0.65-0.13-1.27-0.22-1.9c-0.79-6.77-1.86-13.45-3.2-20.02
	c-2.01-9.91-4.6-19.62-7.74-29.07c-2.12-6.4-4.51-12.68-7.12-18.84c-0.28-0.63-0.53-1.25-0.81-1.86
	c-3.73-8.56-7.93-16.89-12.55-24.91c-4.99-8.62-10.47-16.92-16.41-24.84c0-0.02,0-0.02-0.02-0.04V74.34
	c6.68,5.83,13.08,12,19.2,18.42c3.16,3.32,6.24,6.72,9.25,10.19c7.58,8.75,14.64,17.94,21.15,27.54c2.69,3.95,5.26,7.97,7.74,12.05
	c0.17,0.28,0.33,0.55,0.52,0.83c2.81,4.67,5.5,9.41,8.06,14.25c5.21,9.86,9.88,20.02,13.92,30.51c0.53,1.38,1.07,2.77,1.58,4.17
	c4.58,12.38,8.33,25.15,11.2,38.26c0.5,2.27,0.96,4.54,1.38,6.83c0.31,1.55,0.61,3.12,0.86,4.69
	C593.8,258.23,595.28,274.85,595.28,291.83z"/>
<path class="st4" d="M148.81,92.76v398.15c0,0,0,0-0.02,0c-13.39-10.1-25.73-21.52-36.83-34.07c-4.45-5.04-8.72-10.26-12.75-15.67
	c-0.02-0.02-0.02-0.02-0.02-0.04c-5.96-7.94-11.42-16.22-16.41-24.86c-4.64-8.03-8.83-16.35-12.56-24.91
	c-0.26-0.61-0.52-1.22-0.79-1.85c-2.61-6.16-5-12.44-7.14-18.84c-3.13-9.45-5.72-19.16-7.73-29.07c-1.34-6.57-2.41-13.25-3.2-20.01
	c-0.09-0.63-0.17-1.27-0.22-1.92c-1.03-9.14-1.55-18.44-1.55-27.85c0-9.41,0.52-18.71,1.55-27.85c0.06-0.65,0.13-1.29,0.22-1.92
	c0.79-6.75,1.86-13.44,3.2-20.01c2.01-9.91,4.6-19.62,7.73-29.07c2.13-6.4,4.53-12.68,7.14-18.84c0.28-0.63,0.53-1.25,0.81-1.86
	c3.73-8.56,7.93-16.87,12.55-24.9c4.98-8.64,10.45-16.92,16.41-24.86c0-0.02,0-0.02,0.02-0.04c4.03-5.41,8.3-10.63,12.75-15.67
	c11.09-12.55,23.44-23.97,36.83-34.07C148.81,92.76,148.81,92.76,148.81,92.76z"/>
<path class="st4" d="M446.46,92.74v149.32H198.43V63.69c0.57-0.24,1.14-0.5,1.71-0.74c15.23-6.55,31.27-11.61,47.9-14.99
	c6.55-1.33,13.19-2.42,19.92-3.21c9.73-1.18,19.65-1.77,29.69-1.77c10.04,0,19.96,0.59,29.69,1.77c6.73,0.79,13.37,1.88,19.92,3.21
	c16.63,3.38,32.67,8.43,47.9,14.99c0.57,0.24,1.14,0.48,1.69,0.72c7.03,3.1,13.89,6.5,20.55,10.19c0.06,0.04,0.13,0.07,0.18,0.11
	l8.08,4.67c0.02,0,0.02,0.02,0.04,0.02c6.6,4,13.04,8.3,19.22,12.92C445.43,91.94,445.95,92.33,446.46,92.74z"/>
<path class="st0" d="M425.66,78.64l-8.08-4.67C420.32,75.46,422.99,77.03,425.66,78.64z"/>
<path class="st0" d="M446.5,92.76h-0.04v-0.02C446.48,92.74,446.48,92.74,446.5,92.76z"/>
<path class="st4" d="M446.46,378.04v112.89c-0.51,0.41-1.03,0.79-1.55,1.16c-6.13,4.58-12.53,8.86-19.08,12.83
	c-0.02,0.02-0.04,0.02-0.06,0.04c-0.04,0.02-0.06,0.04-0.09,0.06c-0.02,0-0.02,0.02-0.04,0.02c-2.21,1.33-4.43,2.66-6.71,3.89
	c-0.28,0.17-0.55,0.31-0.83,0.46c-0.04,0.04-0.07,0.06-0.11,0.07c-0.15,0.09-0.28,0.17-0.42,0.24c-0.06,0.04-0.13,0.07-0.18,0.11
	c-6.66,3.69-13.52,7.09-20.55,10.19c-0.55,0.24-1.12,0.48-1.69,0.72c-15.23,6.55-31.27,11.61-47.9,14.99
	c-6.55,1.33-13.19,2.42-19.92,3.21c-9.73,1.18-19.65,1.77-29.69,1.77c-10.04,0-19.96-0.59-29.69-1.77
	c-6.73-0.79-13.37-1.88-19.92-3.21c-16.63-3.38-32.67-8.43-47.9-14.99c-0.57-0.24-1.14-0.5-1.71-0.74V291.83h148.83v28.73
	l36.31,21.04l13.28,7.7L446.46,378.04z"/>
<path class="st0" d="M446.5,490.91c-0.02,0.02-0.02,0.02-0.04,0.02v-0.02H446.5z"/>
<path class="st4" d="M545.68,291.83c0,9.41-0.52,18.71-1.55,27.85c-0.06,0.65-0.13,1.27-0.22,1.9c-0.79,6.77-1.86,13.45-3.2,20.02
	c-2.01,9.91-4.6,19.62-7.74,29.07c-2.12,6.4-4.51,12.68-7.12,18.84c-0.28,0.63-0.53,1.24-0.79,1.85
	c-3.75,8.58-7.95,16.9-12.56,24.93c-4.99,8.62-10.47,16.92-16.41,24.84c0,0.02,0,0.02-0.02,0.04V349.3l-13.28-7.7h-36.33v-21.04
	l-49.61-28.73l49.61-28.73v-21.04h36.33l13.28-7.7v-91.87c0.02,0.02,0.02,0.02,0.02,0.04c5.94,7.92,11.42,16.22,16.41,24.84
	c4.62,8.03,8.81,16.35,12.55,24.91c0.28,0.61,0.53,1.24,0.81,1.86c2.61,6.16,5,12.44,7.12,18.84c3.15,9.45,5.74,19.16,7.74,29.07
	c1.34,6.57,2.41,13.25,3.2,20.02c0.09,0.63,0.17,1.26,0.22,1.9C545.17,273.12,545.68,282.42,545.68,291.83z"/>
</svg>
