<?xml version="1.0" encoding="utf-8"?>
<!-- Generator: Adobe Illustrator 25.2.1, SVG Export Plug-In . SVG Version: 6.00 Build 0)  -->
<svg version="1.1" id="Capa_1" xmlns="http://www.w3.org/2000/svg" xmlns:xlink="http://www.w3.org/1999/xlink" x="0px" y="0px"
	 viewBox="0 0 595.28 841.89" style="enable-background:new 0 0 595.28 841.89;" xml:space="preserve">
<style type="text/css">
	.st0{fill:none;stroke:#000000;stroke-miterlimit:10;}
	.st1{fill:#0A0A0A;stroke:#000000;stroke-miterlimit:10;}
	.st2{fill:#A46033;stroke:#000000;stroke-miterlimit:10;}
	.st3{stroke:#000000;stroke-miterlimit:10;}
	.st4{fill:#C6C6C5;stroke:#000000;stroke-miterlimit:10;}
</style>
<line class="st0" x1="216.73" y1="435.38" x2="216.73" y2="434.27"/>
<path class="st1" d="M217.57,434.9l-0.83,0.48h-0.01v27.98c-1.23-0.69-2.45-1.4-3.66-2.13c-6.51-3.91-12.72-8.26-18.58-13
	c-1.6-1.3-3.17-2.62-4.72-3.98c-3.63-3.17-7.12-6.51-10.45-9.99c-1.72-1.8-3.39-3.64-5.03-5.52c-4.12-4.74-7.96-9.72-11.49-14.91
	c-1.46-2.14-2.87-4.32-4.22-6.54c-0.09-0.15-0.18-0.3-0.28-0.45c-1.53-2.53-2.99-5.11-4.38-7.73c-2.84-5.33-5.37-10.85-7.57-16.52
	c-0.3-0.75-0.58-1.51-0.86-2.27c-2.5-6.71-4.54-13.63-6.09-20.73c-0.27-1.22-0.52-2.45-0.75-3.68c-0.17-0.85-0.33-1.7-0.47-2.55
	c-1.55-8.76-2.35-17.77-2.35-26.97c0-9.2,0.8-18.21,2.35-26.97c0.14-0.85,0.3-1.7,0.47-2.55c0.23-1.23,0.48-2.46,0.75-3.68
	c1.55-7.1,3.59-14.03,6.09-20.74c0.28-0.76,0.57-1.51,0.86-2.26c2.2-5.67,4.73-11.19,7.57-16.52c1.39-2.62,2.85-5.2,4.38-7.73
	c0.1-0.15,0.19-0.3,0.28-0.45c1.35-2.22,2.76-4.4,4.22-6.54c3.53-5.19,7.37-10.17,11.49-14.91c1.64-1.88,3.31-3.72,5.03-5.52
	c3.33-3.48,6.82-6.82,10.45-9.99c1.55-1.36,3.12-2.68,4.72-3.98c5.86-4.74,12.07-9.09,18.58-13c1.21-0.73,2.43-1.44,3.66-2.13v29.1
	c0,0,0,0-0.01,0c-7.28,5.47-13.99,11.66-20.02,18.46c-2.42,2.73-4.74,5.56-6.93,8.49c-0.01,0.01-0.01,0.01-0.01,0.02
	c-3.24,4.3-6.21,8.79-8.92,13.47c-2.51,4.35-4.79,8.85-6.82,13.49c-0.15,0.33-0.29,0.67-0.44,1.01c-1.42,3.34-2.72,6.74-3.88,10.21
	c-1.7,5.12-3.11,10.38-4.2,15.75c-0.73,3.56-1.31,7.18-1.74,10.84c-0.05,0.34-0.09,0.69-0.12,1.04c-0.56,4.95-0.84,9.99-0.84,15.09
	c0,5.1,0.28,10.14,0.84,15.09c0.03,0.35,0.07,0.7,0.12,1.04c0.43,3.66,1.01,7.28,1.74,10.84c1.09,5.37,2.5,10.63,4.2,15.75
	c1.16,3.47,2.46,6.87,3.88,10.21c0.15,0.34,0.29,0.67,0.43,1c2.03,4.64,4.31,9.15,6.83,13.5c2.71,4.68,5.68,9.17,8.92,13.47
	c0,0.01,0,0.01,0.01,0.02c2.19,2.93,4.51,5.76,6.93,8.49c6.03,6.8,12.74,12.99,20.02,18.46c0.01,0,0.01,0,0.01,0v0.01
	C217.01,434.48,217.29,434.69,217.57,434.9z"/>
<path class="st2" d="M405.51,208.54v86.71l-7.22,4.17h-19.75v-80.9h0.02c-0.01-0.01-0.01-0.01-0.02-0.01
	c-0.28-0.22-0.56-0.43-0.84-0.63c-3.36-2.5-6.86-4.83-10.45-7c-0.01,0-0.01-0.01-0.02-0.01c-1.45-0.87-2.9-1.72-4.39-2.53
	c-0.03-0.02-0.07-0.04-0.1-0.06c-3.62-2-7.35-3.84-11.17-5.52c-0.3-0.13-0.61-0.26-0.92-0.39c-8.28-3.55-17-6.29-26.04-8.12
	c-3.56-0.72-7.17-1.31-10.83-1.74c-5.29-0.64-10.68-0.96-16.14-0.96c-5.46,0-10.85,0.32-16.14,0.96c-3.66,0.43-7.27,1.02-10.83,1.74
	c-9.04,1.83-17.76,4.57-26.04,8.12c-0.31,0.13-0.62,0.27-0.93,0.4v96.65h134.84v11.4l-26.97,15.57l26.97,15.57v11.4h19.75l7.22,4.17
	v86.72c-1.55,1.35-3.12,2.68-4.72,3.98c-5.86,4.74-12.07,9.09-18.59,13c-1.21,0.73-2.43,1.44-3.66,2.13v-29.09
	c0.01,0,0.01,0,0.02-0.01h-0.02V373.1l-26.97-15.57l-7.22-4.17l-19.74-11.4v-15.57H243.7v149.13c-8.4-2.9-16.47-6.46-24.17-10.61
	c-0.94-0.51-1.87-1.02-2.8-1.55v-27.98h0.01l0.83-0.48c-0.28-0.21-0.56-0.42-0.84-0.63V189.42c0.93-0.53,1.86-1.04,2.8-1.55
	c7.7-4.15,15.77-7.71,24.17-10.61c2.42-0.84,4.86-1.62,7.33-2.34c6.39-1.88,12.95-3.38,19.64-4.48c7.45-1.22,15.08-1.94,22.84-2.13
	c1.37-0.03,2.75-0.05,4.13-0.05s2.75,0.02,4.12,0.05c7.76,0.19,15.39,0.91,22.85,2.13c6.69,1.1,13.25,2.6,19.64,4.48
	c2.47,0.72,4.91,1.5,7.32,2.34c8.4,2.9,16.48,6.46,24.17,10.62c0.94,0.5,1.87,1.01,2.8,1.54c1.23,0.69,2.45,1.4,3.66,2.13
	c6.52,3.91,12.73,8.26,18.59,13C402.39,205.85,403.96,207.18,405.51,208.54z"/>
<path class="st0" d="M367.23,210.87l-4.39-2.53C364.33,209.15,365.78,210,367.23,210.87z"/>
<path class="st0" d="M378.56,218.52h-0.02v-0.01C378.55,218.51,378.55,218.51,378.56,218.52z"/>
<path class="st3" d="M378.54,434.27v29.09c-0.93,0.53-1.86,1.04-2.8,1.54c-7.69,4.16-15.77,7.72-24.17,10.62
	c-2.41,0.84-4.85,1.62-7.32,2.34c-6.39,1.88-12.95,3.38-19.64,4.48c-7.46,1.22-15.09,1.94-22.85,2.13
	c-1.37,0.03-2.74,0.05-4.12,0.05s-2.76-0.02-4.13-0.05c-7.76-0.19-15.39-0.91-22.84-2.13c-6.69-1.1-13.25-2.6-19.64-4.48
	c-2.47-0.72-4.91-1.5-7.33-2.34v-25.51c0.31,0.13,0.62,0.27,0.93,0.4c8.28,3.55,17,6.29,26.04,8.12c3.56,0.72,7.17,1.31,10.83,1.74
	c5.29,0.64,10.68,0.96,16.14,0.96c5.46,0,10.85-0.32,16.14-0.96c3.66-0.43,7.27-1.02,10.83-1.74c9.04-1.83,17.76-4.57,26.04-8.12
	c0.31-0.13,0.62-0.26,0.92-0.39c3.82-1.68,7.55-3.52,11.17-5.52c0.03-0.02,0.07-0.04,0.1-0.06c0.08-0.04,0.15-0.08,0.23-0.13
	c0.02-0.01,0.04-0.02,0.06-0.04c0.15-0.08,0.3-0.16,0.45-0.25c1.24-0.67,2.45-1.39,3.65-2.11c0.01,0,0.01-0.01,0.02-0.01
	c0.02-0.01,0.03-0.02,0.05-0.03c0.01-0.01,0.02-0.01,0.03-0.02c3.56-2.15,7.04-4.47,10.37-6.95
	C377.98,434.7,378.26,434.49,378.54,434.27z"/>
<path class="st0" d="M378.56,434.26c-0.01,0.01-0.01,0.01-0.02,0.01v-0.01H378.56z"/>
<path class="st3" d="M459.44,326.39c0,9.2-0.8,18.21-2.35,26.97c-0.14,0.85-0.3,1.7-0.47,2.54c-0.23,1.24-0.48,2.47-0.75,3.7
	c-1.56,7.09-3.59,14.01-6.09,20.72c-0.28,0.76-0.56,1.52-0.86,2.27c-2.2,5.68-4.74,11.19-7.57,16.53c-1.39,2.62-2.85,5.19-4.38,7.72
	c-0.1,0.15-0.19,0.3-0.28,0.45c-1.35,2.21-2.75,4.39-4.21,6.53c-3.54,5.2-7.38,10.18-11.5,14.92c-1.64,1.88-3.31,3.72-5.03,5.52
	c-3.33,3.48-6.81,6.82-10.44,9.99v-36.94c0.01-0.01,0.01-0.01,0.01-0.02c3.23-4.29,6.21-8.79,8.92-13.46
	c2.51-4.35,4.79-8.86,6.83-13.51c0.14-0.33,0.28-0.66,0.43-1c1.42-3.34,2.72-6.74,3.87-10.21c1.71-5.12,3.12-10.38,4.21-15.75
	c0.73-3.56,1.31-7.18,1.74-10.85c0.05-0.34,0.09-0.68,0.12-1.03c0.56-4.95,0.84-9.99,0.84-15.09c0-5.1-0.28-10.14-0.84-15.09
	c-0.03-0.35-0.07-0.69-0.12-1.03c-0.43-3.67-1.01-7.29-1.74-10.85c-1.09-5.37-2.5-10.63-4.21-15.75c-1.15-3.47-2.45-6.87-3.87-10.21
	c-0.15-0.34-0.29-0.68-0.44-1.01c-2.03-4.64-4.31-9.15-6.82-13.5c-2.71-4.67-5.69-9.17-8.92-13.46c0-0.01,0-0.01-0.01-0.02v-36.93
	c3.63,3.16,7.11,6.5,10.44,9.98c1.72,1.8,3.39,3.64,5.03,5.52c4.12,4.74,7.96,9.72,11.5,14.92c1.46,2.14,2.86,4.32,4.21,6.53
	c0.09,0.15,0.18,0.3,0.28,0.45c1.53,2.53,2.99,5.1,4.38,7.72c2.83,5.34,5.37,10.85,7.57,16.53c0.29,0.75,0.58,1.5,0.86,2.26
	c2.49,6.71,4.53,13.63,6.09,20.73c0.27,1.23,0.52,2.46,0.75,3.7c0.17,0.84,0.33,1.69,0.47,2.54
	C458.64,308.18,459.44,317.19,459.44,326.39z"/>
<path class="st4" d="M216.73,218.52v215.74c0,0,0,0-0.01,0c-7.28-5.47-13.99-11.66-20.02-18.46c-2.42-2.73-4.74-5.56-6.93-8.49
	c-0.01-0.01-0.01-0.01-0.01-0.02c-3.24-4.3-6.21-8.79-8.92-13.47c-2.52-4.35-4.8-8.86-6.83-13.5c-0.14-0.33-0.28-0.66-0.43-1
	c-1.42-3.34-2.72-6.74-3.88-10.21c-1.7-5.12-3.11-10.38-4.2-15.75c-0.73-3.56-1.31-7.18-1.74-10.84c-0.05-0.34-0.09-0.69-0.12-1.04
	c-0.56-4.95-0.84-9.99-0.84-15.09c0-5.1,0.28-10.14,0.84-15.09c0.03-0.35,0.07-0.7,0.12-1.04c0.43-3.66,1.01-7.28,1.74-10.84
	c1.09-5.37,2.5-10.63,4.2-15.75c1.16-3.47,2.46-6.87,3.88-10.21c0.15-0.34,0.29-0.68,0.44-1.01c2.03-4.64,4.31-9.14,6.82-13.49
	c2.71-4.68,5.68-9.17,8.92-13.47c0-0.01,0-0.01,0.01-0.02c2.19-2.93,4.51-5.76,6.93-8.49c6.03-6.8,12.74-12.99,20.02-18.46
	C216.73,218.52,216.73,218.52,216.73,218.52z"/>
<path class="st4" d="M378.54,218.51v80.91H243.7v-96.65c0.31-0.13,0.62-0.27,0.93-0.4c8.28-3.55,17-6.29,26.04-8.12
	c3.56-0.72,7.17-1.31,10.83-1.74c5.29-0.64,10.68-0.96,16.14-0.96c5.46,0,10.85,0.32,16.14,0.96c3.66,0.43,7.27,1.02,10.83,1.74
	c9.04,1.83,17.76,4.57,26.04,8.12c0.31,0.13,0.62,0.26,0.92,0.39c3.82,1.68,7.55,3.52,11.17,5.52c0.03,0.02,0.07,0.04,0.1,0.06
	l4.39,2.53c0.01,0,0.01,0.01,0.02,0.01c3.59,2.17,7.09,4.5,10.45,7C377.98,218.08,378.26,218.29,378.54,218.51z"/>
<path class="st0" d="M367.23,210.87l-4.39-2.53C364.33,209.15,365.78,210,367.23,210.87z"/>
<path class="st0" d="M378.56,218.52h-0.02v-0.01C378.55,218.51,378.55,218.51,378.56,218.52z"/>
<path class="st4" d="M378.54,373.1v61.17c-0.28,0.22-0.56,0.43-0.84,0.63c-3.33,2.48-6.81,4.8-10.37,6.95
	c-0.01,0.01-0.02,0.01-0.03,0.02c-0.02,0.01-0.03,0.02-0.05,0.03c-0.01,0-0.01,0.01-0.02,0.01c-1.2,0.72-2.41,1.44-3.65,2.11
	c-0.15,0.09-0.3,0.17-0.45,0.25c-0.02,0.02-0.04,0.03-0.06,0.04c-0.08,0.05-0.15,0.09-0.23,0.13c-0.03,0.02-0.07,0.04-0.1,0.06
	c-3.62,2-7.35,3.84-11.17,5.52c-0.3,0.13-0.61,0.26-0.92,0.39c-8.28,3.55-17,6.29-26.04,8.12c-3.56,0.72-7.17,1.31-10.83,1.74
	c-5.29,0.64-10.68,0.96-16.14,0.96c-5.46,0-10.85-0.32-16.14-0.96c-3.66-0.43-7.27-1.02-10.83-1.74
	c-9.04-1.83-17.76-4.57-26.04-8.12c-0.31-0.13-0.62-0.27-0.93-0.4V326.39h80.91v15.57l19.74,11.4l7.22,4.17L378.54,373.1z"/>
<path class="st0" d="M378.56,434.26c-0.01,0.01-0.01,0.01-0.02,0.01v-0.01H378.56z"/>
<path class="st4" d="M432.48,326.39c0,5.1-0.28,10.14-0.84,15.09c-0.03,0.35-0.07,0.69-0.12,1.03c-0.43,3.67-1.01,7.29-1.74,10.85
	c-1.09,5.37-2.5,10.63-4.21,15.75c-1.15,3.47-2.45,6.87-3.87,10.21c-0.15,0.34-0.29,0.67-0.43,1c-2.04,4.65-4.32,9.16-6.83,13.51
	c-2.71,4.67-5.69,9.17-8.92,13.46c0,0.01,0,0.01-0.01,0.02v-49.78l-7.22-4.17h-19.75v-11.4l-26.97-15.57l26.97-15.57v-11.4h19.75
	l7.22-4.17v-49.78c0.01,0.01,0.01,0.01,0.01,0.02c3.23,4.29,6.21,8.79,8.92,13.46c2.51,4.35,4.79,8.86,6.82,13.5
	c0.15,0.33,0.29,0.67,0.44,1.01c1.42,3.34,2.72,6.74,3.87,10.21c1.71,5.12,3.12,10.38,4.21,15.75c0.73,3.56,1.31,7.18,1.74,10.85
	c0.05,0.34,0.09,0.68,0.12,1.03C432.2,316.25,432.48,321.29,432.48,326.39z"/>
</svg>
